<svg width="1500" height="707" viewBox="0 0 1500 707" fill="none" xmlns="http://www.w3.org/2000/svg">
<path opacity="0.3" d="M1546.46 543.893V453.546H1454.72V13.3984H1348.62L1039.13 461.423V543.893H1347.23V692.616H1454.72V543.893H1546.46ZM1342.69 285.364C1342.69 271.431 1342.85 257.344 1343.16 243.104L1343.16 243.057L1343.16 243.009C1343.78 228.486 1344.4 214.581 1345.02 201.293C1345.63 188.003 1346.25 175.791 1346.87 164.658C1347.16 159.337 1347.41 154.454 1347.63 150.009C1343.26 158.797 1338.58 167.732 1333.61 176.812L1333.6 176.832L1333.59 176.853C1326.43 189.618 1318.8 202.072 1310.7 214.215L1310.68 214.245L1310.66 214.274L1148.78 449.006H1342.69V285.364ZM1347.23 453.546H1140.13L1306.93 211.697C1314.45 200.403 1321.58 188.839 1328.29 177.003L1329.63 174.632C1336.73 161.659 1343.22 148.995 1349.09 136.64H1352.79C1352.49 144.053 1352.02 153.473 1351.4 164.902C1350.79 176.021 1350.17 188.222 1349.55 201.504C1348.93 214.785 1348.32 228.685 1347.7 243.202C1347.39 257.41 1347.23 271.465 1347.23 285.364V453.546ZM1459.26 449.006H1551V548.433H1459.26V697.156H1342.69V548.433H1034.59V460.007L1346.24 8.8584H1459.26V449.006Z" fill="url(#paint0_linear_140_670)"/>
<path opacity="0.3" d="M978.9 353.471C978.9 280.267 970.56 217.719 953.881 165.828C937.511 113.628 912.183 73.7832 877.898 46.2933C844.452 18.9289 802.028 5.03327 750.624 4.60572L748.17 4.59508C692.572 4.59508 647.94 18.4948 614.273 46.2933L612.701 47.6057C579.844 75.3454 555.968 114.908 541.069 166.292L540.379 168.732C526.013 220.136 518.83 281.715 518.83 353.471L518.835 356.88C519.087 428.318 527.271 489.729 543.385 541.113C559.756 593.004 584.93 632.849 618.906 660.648C652.882 688.138 695.97 701.883 748.17 701.883C789.217 701.883 824.277 694.251 853.352 678.986L854.732 678.254C883.617 662.747 907.114 640.356 925.224 611.082L926.082 609.684C944.306 579.723 957.588 543.275 965.927 500.342C974.576 457.099 978.9 408.142 978.9 353.471ZM864.091 353.471C864.091 296.816 860.24 249.573 852.598 211.667C844.963 173.801 832.545 145.973 815.714 127.666L815.703 127.653L815.69 127.64C799.062 109.261 776.724 99.9446 748.17 99.9446C719.617 99.9446 697.279 109.26 680.651 127.637H680.652C664.118 145.942 651.849 173.769 644.211 211.632C636.872 249.552 633.175 296.809 633.175 353.471C633.175 410.443 636.873 457.854 644.212 495.772C651.846 533.615 664.258 561.427 681.079 579.728C697.703 597.509 719.902 606.533 748.17 606.533V611.073C718.827 611.073 695.352 601.653 677.746 582.811C660.14 563.661 647.476 534.935 639.754 496.635C632.341 458.334 628.635 410.613 628.635 353.471C628.635 296.638 632.341 249.071 639.754 210.77C647.476 172.469 659.986 143.744 677.283 124.594C694.889 105.135 718.518 95.4045 748.17 95.4045L749.556 95.4125C778.559 95.7119 801.727 105.439 819.057 124.594C836.663 143.744 849.327 172.47 857.049 210.77C864.771 249.071 868.631 296.638 868.631 353.471C868.631 410.922 864.616 458.797 856.585 497.098C848.863 535.398 836.199 563.97 818.594 582.811L817.764 583.687C800.252 601.944 777.054 611.073 748.17 611.073V606.533C776.446 606.533 798.651 597.503 815.276 579.711C832.084 561.724 844.5 534.07 852.135 496.201L852.138 496.184L852.142 496.166C860.086 458.278 864.091 410.739 864.091 353.471ZM983.44 353.471C983.44 408.373 979.099 457.636 970.38 501.232L970.379 501.231C961.96 544.557 948.52 581.529 929.961 612.042C911.34 642.656 886.974 666.098 856.88 682.254C826.73 698.44 790.432 706.423 748.17 706.423C695.14 706.423 650.984 692.442 616.05 664.177L616.03 664.161C581.223 635.683 555.628 595.01 539.055 542.479L539.054 542.472C522.508 489.714 514.29 426.683 514.29 353.471C514.29 280.291 521.729 217.455 536.703 165.044L536.706 165.036L536.708 165.028C552.035 112.167 576.856 71.3004 611.382 42.7925C646.064 14.1559 691.812 0.0550537 748.17 0.0550537C801.495 0.0550537 845.803 14.1853 880.737 42.7526L880.738 42.7517C915.874 70.9241 941.629 111.606 958.203 164.44C975.066 216.904 983.44 279.946 983.44 353.471Z" fill="url(#paint1_linear_140_670)"/>
<path opacity="0.3" d="M460.453 543.893V453.546H368.717V13.3984H262.618L-46.876 461.423V543.893H261.228V692.616H368.717V543.893H460.453ZM256.688 285.364C256.688 271.431 256.842 257.344 257.152 243.104L257.153 243.057L257.155 243.009C257.773 228.486 258.391 214.581 259.009 201.293C259.628 188.003 260.245 175.791 260.864 164.658C261.151 159.337 261.404 154.454 261.624 150.009C257.25 158.797 252.576 167.732 247.604 176.812L247.593 176.832L247.581 176.853C240.421 189.618 232.792 202.072 224.697 214.215L224.677 214.245L224.657 214.274L62.7728 449.006H256.688V285.364ZM261.228 453.546H54.1264L220.919 211.697C228.448 200.403 235.57 188.839 242.284 177.003L243.622 174.632C250.726 161.659 257.213 148.995 263.081 136.64H266.788C266.479 144.053 266.015 153.473 265.397 164.902C264.78 176.021 264.162 188.222 263.544 201.504C262.926 214.785 262.309 228.685 261.691 243.202C261.382 257.41 261.228 271.465 261.228 285.364V453.546ZM373.257 449.006H464.993V548.433H373.257V697.156H256.688V548.433H-51.416V460.007L260.236 8.8584H373.257V449.006Z" fill="url(#paint2_linear_140_670)"/>
<defs>
<linearGradient id="paint0_linear_140_670" x1="1123.22" y1="8.8584" x2="1615.66" y2="419.942" gradientUnits="userSpaceOnUse">
<stop stop-color="#01F3FF"/>
<stop offset="1" stop-color="#004697"/>
</linearGradient>
<linearGradient id="paint1_linear_140_670" x1="594.806" y1="0.0550507" x2="1085.8" y2="362.899" gradientUnits="userSpaceOnUse">
<stop stop-color="#01F3FF"/>
<stop offset="1" stop-color="#004697"/>
</linearGradient>
<linearGradient id="paint2_linear_140_670" x1="37.2108" y1="8.8584" x2="529.649" y2="419.942" gradientUnits="userSpaceOnUse">
<stop stop-color="#01F3FF"/>
<stop offset="1" stop-color="#004697"/>
</linearGradient>
</defs>
</svg>
