<svg width="15" height="8" viewBox="0 0 15 8" fill="none" xmlns="http://www.w3.org/2000/svg">
<path d="M14.2166 6.44286L7.49708 0L0.777582 6.44286C0.595038 6.61846 0.495251 6.85407 0.500174 7.09785C0.505096 7.34164 0.614325 7.57362 0.80383 7.74278C0.993335 7.91193 1.24759 8.0044 1.51067 7.99984C1.77375 7.99528 2.0241 7.89406 2.20664 7.71845L7.49708 2.64308L12.7934 7.71845C12.9759 7.89406 13.2262 7.99528 13.4893 7.99984C13.7524 8.0044 14.0067 7.91193 14.1962 7.74278C14.3857 7.57362 14.4949 7.34164 14.4998 7.09785C14.5047 6.85407 14.405 6.61846 14.2224 6.44286H14.2166Z" fill="white"/>
</svg>
