<svg width="12" height="7" viewBox="0 0 12 7" fill="none" xmlns="http://www.w3.org/2000/svg">
<path d="M6.17202 6.41228L11.482 0.839283C11.5707 0.746294 11.6201 0.622753 11.6201 0.494282C11.6201 0.365812 11.5707 0.242271 11.482 0.149283L11.476 0.143282C11.433 0.0980473 11.3813 0.0620278 11.324 0.037414C11.2667 0.0128003 11.2049 0.000107252 11.1425 0.000107247C11.0801 0.000107241 11.0184 0.0128003 10.9611 0.037414C10.9037 0.0620278 10.852 0.0980473 10.809 0.143282L5.80902 5.39128L0.811022 0.143281C0.768049 0.0980464 0.716323 0.0620269 0.65899 0.0374131C0.601657 0.0127994 0.539916 0.00010632 0.477522 0.000106314C0.415129 0.000106309 0.353388 0.0127993 0.296055 0.0374131C0.238722 0.0620268 0.186996 0.0980463 0.144023 0.143281L0.138022 0.149282C0.0493773 0.24227 -7.38444e-05 0.365811 -7.38557e-05 0.494281C-7.38669e-05 0.622752 0.0493773 0.746293 0.138022 0.839282L5.44802 6.41228C5.49472 6.46129 5.55088 6.50031 5.61311 6.52697C5.67533 6.55363 5.74233 6.56738 5.81002 6.56738C5.87772 6.56738 5.94471 6.55363 6.00694 6.52697C6.06916 6.50031 6.12532 6.46129 6.17202 6.41228Z" fill="#132233"/>
</svg>
