<svg width="24" height="25" viewBox="0 0 24 25" fill="none" xmlns="http://www.w3.org/2000/svg">
<path fill-rule="evenodd" clip-rule="evenodd" d="M10.5869 2.6C10.9409 2.24648 11.4146 2.03846 11.9144 2.01698C12.4142 1.99551 12.9039 2.16214 13.2869 2.484L13.4149 2.601L15.3149 4.5H18.0009C18.5054 4.50009 18.9911 4.69077 19.3609 5.03384C19.7306 5.3769 19.9571 5.84702 19.9949 6.35L20.0009 6.5V9.186L21.9009 11.086C22.2548 11.44 22.4629 11.9139 22.4844 12.4139C22.5059 12.914 22.3391 13.4039 22.0169 13.787L21.8999 13.914L19.9999 15.814V18.5C20.0001 19.0046 19.8095 19.4906 19.4664 19.8605C19.1234 20.2305 18.6531 20.4572 18.1499 20.495L18.0009 20.5H15.3159L13.4159 22.4C13.0619 22.7538 12.5881 22.962 12.088 22.9835C11.588 23.005 11.098 22.8382 10.7149 22.516L10.5879 22.4L8.68795 20.5H6.00095C5.49637 20.5002 5.01038 20.3096 4.6404 19.9665C4.27042 19.6234 4.04379 19.1532 4.00595 18.65L4.00095 18.5V15.814L2.10095 13.914C1.74714 13.56 1.53894 13.0861 1.51747 12.5861C1.49599 12.086 1.6628 11.5961 1.98495 11.213L2.10095 11.086L4.00095 9.186V6.5C4.00104 5.9956 4.19172 5.50986 4.53478 5.14009C4.87785 4.77032 5.34796 4.54383 5.85095 4.506L6.00095 4.5H8.68695L10.5869 2.6ZM15.0799 9.483L10.8359 13.727L9.06795 11.959C8.88031 11.7715 8.62586 11.6662 8.36059 11.6663C8.09532 11.6664 7.84096 11.7719 7.65345 11.9595C7.46594 12.1471 7.36065 12.4016 7.36074 12.6669C7.36084 12.9321 7.46631 13.1865 7.65395 13.374L10.0579 15.778C10.1601 15.8802 10.2814 15.9613 10.4149 16.0166C10.5484 16.0719 10.6914 16.1004 10.8359 16.1004C10.9804 16.1004 11.1235 16.0719 11.257 16.0166C11.3905 15.9613 11.5118 15.8802 11.6139 15.778L16.4939 10.897C16.6761 10.7084 16.7769 10.4558 16.7746 10.1936C16.7723 9.9314 16.6672 9.68059 16.4818 9.49518C16.2964 9.30977 16.0455 9.20461 15.7833 9.20233C15.5212 9.20005 15.2685 9.30084 15.0799 9.483Z" fill="#00529C"/>
</svg>
