<svg width="20" height="14" viewBox="0 0 20 14" fill="none" xmlns="http://www.w3.org/2000/svg">
<path d="M-0.0370026 1.86031V4.04082H3.09545L-0.0370026 1.86031ZM2.5589 14H7.19858V10.7705L2.5589 14ZM12.7644 10.771V14H17.4035L12.7644 10.771ZM-0.0370026 9.57372V11.7542L3.09656 9.57372H-0.0370026ZM17.4047 -0.385498H12.7644V2.84406L17.4047 -0.385498ZM20 11.7548V9.57372H16.8659L20 11.7548ZM20 4.04082V1.86031L16.867 4.04082H20ZM7.19858 -0.385498H2.5589L7.19858 2.84406V-0.385498Z" fill="#00247D"/>
<path d="M13.9909 9.59842L19.4441 13.3949C19.7104 13.1222 19.9018 12.786 20 12.4186L15.9488 9.59842H13.9909ZM7.1743 9.59842H5.97213L0.519441 13.3944C0.81198 13.6902 1.18706 13.9018 1.60762 14L7.1743 10.1248V9.59842ZM12.7893 4.01613H13.9914L19.4441 0.22018C19.1466 -0.0799936 18.7694 -0.290026 18.3565 -0.385498L12.7893 3.48972V4.01613ZM5.97213 4.01613L0.519441 0.22018C0.253265 0.493139 0.0617167 0.829232 -0.0370026 1.19652L4.0142 4.01613H5.97213Z" fill="#CF1B2B"/>
<path d="M20 8.46714H11.6513V14H12.7644V10.771L17.4035 14H17.7737C18.0694 14.0001 18.3621 13.9414 18.6347 13.8275C18.9073 13.7136 19.1542 13.5467 19.361 13.3367L13.9555 9.57372H15.8963L19.9121 12.3689C19.9638 12.1825 20 11.9894 20 11.7869V11.7548L16.8659 9.57372H20V8.46714ZM-0.0370026 8.46714V9.57372H3.09656L-0.0370026 11.7542V11.7869C-0.0370026 12.3905 0.207338 12.9366 0.601955 13.3361L6.00694 9.57372H7.19858V10.0955L1.68061 13.9359C1.84425 13.9746 2.01345 14 2.18933 14H2.5589L7.19858 10.7705V14H8.31175V8.46714H-0.0370026ZM20 1.82766C20.0003 1.2478 19.7708 0.691179 19.361 0.27845L13.9561 4.04082H12.7644V3.51907L18.2829 -0.32187C18.1162 -0.362521 17.9453 -0.383872 17.7737 -0.385498H17.4047L12.7644 2.84406V-0.385498H11.6513V5.1474H20V4.04082H16.867L20 1.86031V1.82766ZM7.19858 -0.385498V2.84406L2.5589 -0.385498H2.18933C1.89358 -0.385626 1.60078 -0.326953 1.32817 -0.212929C1.05557 -0.0989064 0.80865 0.0681631 0.601955 0.27845L6.00694 4.04082H4.06613L0.050381 1.24615C-0.00484306 1.43522 -0.0342344 1.63081 -0.0370026 1.82766L-0.0370026 1.86031L3.09545 4.04082H-0.0370026V5.1474H8.31175V-0.385498H7.19858Z" fill="#EEEEEE"/>
<path d="M11.6513 5.1474V-0.385498H8.31175V5.1474H-0.0370026V8.46714H8.31175V14H11.6513V8.46714H20V5.1474H11.6513Z" fill="#CF1B2B"/>
</svg>
