<svg width="22" height="23" viewBox="0 0 22 23" fill="none" xmlns="http://www.w3.org/2000/svg">
<path fill-rule="evenodd" clip-rule="evenodd" d="M11.3818 13.4027L19.5523 21.5733C19.8247 21.8363 20.1896 21.9819 20.5683 21.9786C20.947 21.9753 21.3092 21.8235 21.577 21.5557C21.8448 21.2879 21.9967 20.9256 22 20.5469C22.0033 20.1682 21.8577 19.8034 21.5946 19.531L13.4241 11.3604L21.5946 3.1899C21.8577 2.9175 22.0033 2.55266 22 2.17396C21.9967 1.79526 21.8448 1.43301 21.577 1.16522C21.3092 0.897431 20.947 0.745533 20.5683 0.742242C20.1896 0.738951 19.8247 0.884531 19.5523 1.14763L11.3818 9.31817L3.21124 1.14763C2.93761 0.891035 2.57489 0.750965 2.19982 0.757056C1.82475 0.763146 1.46677 0.914919 1.20162 1.18026C0.936465 1.4456 0.784945 1.80369 0.77912 2.17876C0.773295 2.55383 0.913621 2.91645 1.17041 3.1899L9.3395 11.3604L1.16896 19.531C1.03101 19.6642 0.920983 19.8236 0.845287 19.9998C0.769592 20.176 0.729748 20.3655 0.728082 20.5573C0.726415 20.7491 0.762959 20.9393 0.835581 21.1168C0.908203 21.2943 1.01545 21.4555 1.15106 21.5912C1.28667 21.7268 1.44793 21.834 1.62544 21.9066C1.80294 21.9793 1.99312 22.0158 2.1849 22.0141C2.37668 22.0125 2.5662 21.9726 2.74242 21.8969C2.91863 21.8212 3.078 21.7112 3.21124 21.5733L11.3818 13.4027Z" fill="#7D7D7D"/>
</svg>
