<svg width="29" height="29" viewBox="0 0 29 29" fill="none" xmlns="http://www.w3.org/2000/svg">
<path d="M8.62129 11.4147H20.3845M8.62129 17.5853H17.0103M14.5029 28C17.4355 27.9993 20.2882 27.0438 22.6295 25.2778C24.9707 23.5119 26.6733 21.0315 27.4797 18.2119C28.286 15.3924 28.1523 12.3869 27.0987 9.65006C26.0452 6.91323 24.1291 4.5939 21.6402 3.04282C19.1514 1.49175 16.2251 0.793294 13.304 1.05309C10.383 1.31289 7.62591 2.51682 5.44986 4.48278C3.27381 6.44875 1.79712 9.06984 1.2431 11.9496C0.689087 14.8295 1.08789 17.8114 2.37919 20.4444C2.53681 20.7654 2.58935 21.1274 2.50908 21.4747L1.31816 26.6354C1.28459 26.7802 1.28844 26.9312 1.32935 27.0741C1.37027 27.2171 1.4469 27.3472 1.55202 27.4523C1.65714 27.5575 1.7873 27.6341 1.93023 27.675C2.07316 27.7159 2.22415 27.7198 2.36897 27.6862L7.52816 26.4938C7.87649 26.4175 8.24048 26.4639 8.55854 26.6252C10.4082 27.5335 12.4422 28.0039 14.5029 28Z" stroke="white" stroke-width="2" stroke-linecap="round" stroke-linejoin="round"/>
</svg>
