<svg width="46" height="46" viewBox="0 0 46 46" fill="none" xmlns="http://www.w3.org/2000/svg">
<g clip-path="url(#clip0_1155_161612)">
<path d="M23.0014 37.4829L27.2439 34.6889C29.3167 33.3234 30.5653 31.0077 30.5653 28.5259V21.4325C30.5653 21.4325 26.1783 21.391 23.0014 19.0337C19.8245 21.391 15.4375 21.4325 15.4375 21.4325V28.5259C15.4375 31.0077 16.6861 33.3234 18.7589 34.6889L23.0014 37.4829Z" stroke="#00AAAD" stroke-linecap="round" stroke-linejoin="round"/>
<path d="M20.279 32.3777C18.9797 31.5212 18.2031 30.0819 18.2031 28.5258V23.9081C19.5886 23.6544 21.3216 23.1792 22.9992 22.292C24.6783 23.1792 26.4113 23.6544 27.7952 23.9081V28.5258C27.7952 30.0819 27.0187 31.5227 25.7194 32.3777L22.9976 34.1691L20.2759 32.3777H20.279Z" stroke="#00AAAD" stroke-linecap="round" stroke-linejoin="round"/>
<path d="M22.0234 16.5425C22.5632 16.0028 23.4396 16.0028 23.9809 16.5425" stroke="#00AAAD" stroke-linecap="round" stroke-linejoin="round"/>
<path d="M20.3281 14.8466C21.8058 13.3689 24.2 13.3689 25.6762 14.8466" stroke="#00AAAD" stroke-linecap="round" stroke-linejoin="round"/>
<path d="M18.6289 13.1505C21.0431 10.7363 24.9565 10.7363 27.3691 13.1505" stroke="#00AAAD" stroke-linecap="round" stroke-linejoin="round"/>
<path d="M23.0003 0.307617L45.692 18.7568H39.7888L23.0003 5.28973L6.21179 18.7568H0.308594L23.0003 0.307617Z" stroke="#00AAAD" stroke-linecap="round" stroke-linejoin="round"/>
<path d="M39.7895 18.7568V41.264H6.21094V25.618L6.22324 22.4196L6.21094 18.7568" stroke="#00AAAD" stroke-linecap="round" stroke-linejoin="round"/>
<path d="M15.1624 45.6927H4.55078V41.2642H41.4492V45.6927H15.1624Z" stroke="#00AAAD" stroke-linecap="round" stroke-linejoin="round"/>
</g>
<defs>
<clipPath id="clip0_1155_161612">
<rect width="46" height="46" fill="white"/>
</clipPath>
</defs>
</svg>
