<svg width="16" height="16" viewBox="0 0 16 16" fill="none" xmlns="http://www.w3.org/2000/svg">
<path d="M13.2662 14.993H2.74152C1.68941 14.993 0.877396 14.1992 1.0153 13.1562L1.0951 12.5479C1.24 11.7079 2.00861 11.1794 2.84302 10.9981L7.9496 10.1H8.0504L13.157 10.9981C14.0054 11.1941 14.76 11.6932 14.9049 12.5479L14.9847 13.1639C15.1226 14.2069 14.3106 15 13.2585 15L13.2662 14.993ZM11.5001 4.5C11.5001 5.42826 11.1313 6.3185 10.4749 6.97487C9.81852 7.63125 8.92827 8 8 8C7.07173 8 6.18148 7.63125 5.52509 6.97487C4.8687 6.3185 4.49995 5.42826 4.49995 4.5C4.49995 3.57174 4.8687 2.6815 5.52509 2.02513C6.18148 1.36875 7.07173 1 8 1C8.92827 1 9.81852 1.36875 10.4749 2.02513C11.1313 2.6815 11.5001 3.57174 11.5001 4.5Z" stroke="white" stroke-linecap="round" stroke-linejoin="round"/>
</svg>
