<svg width="300" height="51" viewBox="0 0 300 51" fill="none" xmlns="http://www.w3.org/2000/svg">
<line y1="48.5" x2="212" y2="48.5" stroke="#00AAAD" strokeWidth="5"/>
<line x1="48" y1="25.5" x2="212" y2="25.5" stroke="#00AAAD" strokeWidth="5"/>
<line x1="106" y1="2.5" x2="212" y2="2.50001" stroke="#00AAAD" strokeWidth="5"/>
<path d="M236 0V51H300V0H236ZM265.44 30.4938C266.18 31.042 267.078 31.3381 268 31.3381C268.922 31.3381 269.82 31.042 270.56 30.4938L273.689 28.1562L295.733 44.625V46.75H240.267V44.625L262.311 28.1562L265.44 30.4938ZM268 27.0938L240.267 6.375V4.25H295.733V6.375L268 27.0938ZM240.267 11.6875L258.756 25.5L240.267 39.3125V11.6875ZM295.733 39.3125L277.244 25.5L295.733 11.6875V39.3125Z" fill="#00AAAD"/>
</svg>
