<svg width="18" height="18" viewBox="0 0 18 18" fill="none" xmlns="http://www.w3.org/2000/svg">
<g clip-path="url(#clip0_4_12678)">
<path d="M15.4688 16.3125V0.5625H2.53125V16.3125H0.5625V17.4375H17.4375V16.3125H15.4688ZM14.3438 16.3125H9.5625V14.0625H8.4375V16.3125H3.65625V1.6875H14.3438V16.3125Z" fill="#009FA7"/>
<path d="M5.625 10.6875H6.75V11.8125H5.625V10.6875ZM8.4375 10.6875H9.5625V11.8125H8.4375V10.6875ZM11.25 10.6875H12.375V11.8125H11.25V10.6875ZM5.625 7.3125H6.75V8.4375H5.625V7.3125ZM8.4375 7.3125H9.5625V8.4375H8.4375V7.3125ZM11.25 7.3125H12.375V8.4375H11.25V7.3125ZM5.625 3.9375H6.75V5.0625H5.625V3.9375ZM8.4375 3.9375H9.5625V5.0625H8.4375V3.9375ZM11.25 3.9375H12.375V5.0625H11.25V3.9375Z" fill="#009FA7"/>
</g>
<defs>
<clipPath id="clip0_4_12678">
<rect width="18" height="18" fill="white"/>
</clipPath>
</defs>
</svg>
