<svg width="24" height="25" viewBox="0 0 24 25" fill="none" xmlns="http://www.w3.org/2000/svg">
<path d="M10.115 22.311C10.721 22.811 11.353 23.268 12 23.714C12.6484 23.2739 13.2773 22.8058 13.885 22.311C14.898 21.4792 15.8513 20.5773 16.738 19.612C18.782 17.377 21 14.137 21 10.5C21 9.3181 20.7672 8.14778 20.3149 7.05585C19.8626 5.96392 19.1997 4.97177 18.364 4.13604C17.5282 3.30031 16.5361 2.63738 15.4442 2.18508C14.3522 1.73279 13.1819 1.5 12 1.5C10.8181 1.5 9.64778 1.73279 8.55585 2.18508C7.46392 2.63738 6.47177 3.30031 5.63604 4.13604C4.80031 4.97177 4.13738 5.96392 3.68508 7.05585C3.23279 8.14778 3 9.3181 3 10.5C3 14.137 5.218 17.376 7.262 19.612C8.14862 20.5777 9.10196 21.4789 10.115 22.311ZM12 13.75C11.138 13.75 10.3114 13.4076 9.7019 12.7981C9.09241 12.1886 8.75 11.362 8.75 10.5C8.75 9.63805 9.09241 8.8114 9.7019 8.2019C10.3114 7.59241 11.138 7.25 12 7.25C12.862 7.25 13.6886 7.59241 14.2981 8.2019C14.9076 8.8114 15.25 9.63805 15.25 10.5C15.25 11.362 14.9076 12.1886 14.2981 12.7981C13.6886 13.4076 12.862 13.75 12 13.75Z" fill="#00529C"/>
</svg>
