<svg width="26" height="33" viewBox="0 0 26 33" fill="none" xmlns="http://www.w3.org/2000/svg">
<path d="M16.4937 22.8926H8.14404V22.0576C8.14404 20.6367 8.30518 19.4868 8.62744 18.6079C8.94971 17.7144 9.42578 16.9014 10.0557 16.1689C10.7002 15.4365 12.1357 14.1475 14.3623 12.3018C15.5488 11.335 16.1421 10.4487 16.1421 9.64307C16.1421 8.8374 15.9004 8.21484 15.417 7.77539C14.9482 7.32129 14.2305 7.09424 13.2637 7.09424C12.2236 7.09424 11.3594 7.43848 10.6709 8.12695C9.99707 8.81543 9.56494 10.0166 9.37451 11.7305L0.849121 10.6758C1.14209 7.54102 2.27734 5.02148 4.25488 3.11719C6.24707 1.19824 9.29395 0.23877 13.3955 0.23877C16.5889 0.23877 19.167 0.905273 21.1299 2.23828C23.7959 4.04004 25.1289 6.44238 25.1289 9.44531C25.1289 10.6904 24.7847 11.8916 24.0962 13.0488C23.4077 14.2061 22.0015 15.6196 19.8774 17.2896C18.3979 18.4614 17.4604 19.4062 17.0649 20.124C16.6841 20.8271 16.4937 21.75 16.4937 22.8926ZM7.8584 25.1118H16.8013V33H7.8584V25.1118Z" fill="white"/>
</svg>
