<svg width="11" height="16" viewBox="0 0 11 16" fill="none" xmlns="http://www.w3.org/2000/svg">
<path d="M2.14107 15.6761L11 7.99667L2.14107 0.317235C1.89961 0.108614 1.57565 -0.00542789 1.24045 0.000197756C0.905249 0.0058234 0.586268 0.130656 0.35368 0.347233C0.121092 0.56381 -0.00605115 0.854392 0.000221138 1.15505C0.00649247 1.45571 0.145666 1.74183 0.387124 1.95045L7.36576 7.99667L0.387123 14.0496C0.145665 14.2582 0.00649117 14.5443 0.000219778 14.8449C-0.00605257 15.1456 0.12109 15.4362 0.353678 15.6528C0.586267 15.8693 0.905247 15.9942 1.24045 15.9998C1.57565 16.0054 1.89961 15.8914 2.14107 15.6828L2.14107 15.6761Z" fill="#00AAAD"/>
</svg>
