<svg width="23" height="23" viewBox="0 0 23 23" fill="none" xmlns="http://www.w3.org/2000/svg">
<path d="M12.1581 2.15745C11.7831 1.78233 11.2745 1.57152 10.744 1.57141H3.57155C3.04108 1.57141 2.53234 1.78214 2.15724 2.15724C1.78214 2.53234 1.57141 3.04108 1.57141 3.57155V10.744C1.57152 11.2745 1.78233 11.7831 2.15745 12.1581L10.8621 20.8628C11.3166 21.3144 11.9314 21.5679 12.5722 21.5679C13.213 21.5679 13.8277 21.3144 14.2823 20.8628L20.8628 14.2823C21.3144 13.8277 21.5679 13.213 21.5679 12.5722C21.5679 11.9314 21.3144 11.3166 20.8628 10.8621L12.1581 2.15745Z" stroke="white" stroke-width="2" stroke-linecap="round" stroke-linejoin="round"/>
<path d="M7.07181 7.57185C7.34797 7.57185 7.57185 7.34797 7.57185 7.07181C7.57185 6.79565 7.34797 6.57178 7.07181 6.57178C6.79565 6.57178 6.57178 6.79565 6.57178 7.07181C6.57178 7.34797 6.79565 7.57185 7.07181 7.57185Z" fill="white" stroke="white" stroke-width="2" stroke-linecap="round" stroke-linejoin="round"/>
</svg>
