<svg width="34" height="34" viewBox="0 0 34 34" fill="none" xmlns="http://www.w3.org/2000/svg">
<path fill-rule="evenodd" clip-rule="evenodd" d="M17 0C7.61126 0 0 7.61126 0 17C0 26.3887 7.61126 34 17 34C26.3887 34 34 26.3887 34 17C34 7.61126 26.3887 0 17 0ZM13.366 11.6881C13.1424 11.4719 12.8428 11.3522 12.5318 11.3548C12.2209 11.3574 11.9233 11.482 11.7033 11.7018C11.4833 11.9216 11.3584 12.219 11.3556 12.5299C11.3527 12.8409 11.4721 13.1406 11.6881 13.3644L15.3221 17L11.6881 20.634C11.4786 20.8589 11.3645 21.1563 11.37 21.4635C11.3754 21.7708 11.4999 22.064 11.7172 22.2813C11.9345 22.4986 12.2276 22.623 12.5349 22.6285C12.8422 22.6339 13.1395 22.5198 13.3644 22.3103L17 18.6794L20.634 22.3135C20.8589 22.523 21.1563 22.637 21.4635 22.6316C21.7708 22.6262 22.064 22.5017 22.2813 22.2844C22.4986 22.0671 22.623 21.774 22.6285 21.4667C22.6339 21.1594 22.5198 20.862 22.3103 20.6372L18.6763 17L22.3103 13.366C22.4269 13.2574 22.5203 13.1264 22.5851 12.9809C22.65 12.8355 22.6848 12.6784 22.6876 12.5192C22.6904 12.3599 22.6611 12.2017 22.6015 12.054C22.5418 11.9063 22.4531 11.7722 22.3404 11.6596C22.2278 11.5469 22.0937 11.4582 21.946 11.3985C21.7983 11.3389 21.6401 11.3096 21.4808 11.3124C21.3216 11.3152 21.1645 11.35 21.0191 11.4149C20.8736 11.4797 20.7426 11.5731 20.634 11.6897L17 15.3206L13.366 11.6881Z" fill="#B40505"/>
</svg>
