<svg width="34" height="34" viewBox="0 0 34 34" fill="none" xmlns="http://www.w3.org/2000/svg">
<path d="M17 0C26.3891 0 34 7.6109 34 17C34 26.3891 26.3891 34 17 34C7.6109 34 0 26.3891 0 17C0 7.6109 7.6109 0 17 0ZM17 22.1C16.5491 22.1 16.1167 22.2791 15.7979 22.5979C15.4791 22.9167 15.3 23.3491 15.3 23.8C15.3 24.2509 15.4791 24.6833 15.7979 25.0021C16.1167 25.3209 16.5491 25.5 17 25.5C17.4509 25.5 17.8833 25.3209 18.2021 25.0021C18.5209 24.6833 18.7 24.2509 18.7 23.8C18.7 23.3491 18.5209 22.9167 18.2021 22.5979C17.8833 22.2791 17.4509 22.1 17 22.1ZM17 6.8C16.5836 6.80006 16.1817 6.95293 15.8706 7.22962C15.5594 7.50631 15.3606 7.88757 15.3119 8.3011L15.3 8.5V18.7C15.3005 19.1333 15.4664 19.5501 15.7638 19.8651C16.0613 20.1802 16.4678 20.3698 16.9004 20.3952C17.3329 20.4206 17.7588 20.2799 18.0911 20.0018C18.4234 19.7236 18.6369 19.3292 18.6881 18.8989L18.7 18.7V8.5C18.7 8.04913 18.5209 7.61673 18.2021 7.29792C17.8833 6.97911 17.4509 6.8 17 6.8Z" fill="#FAA912"/>
</svg>
