<svg width="55" height="55" viewBox="0 0 55 55" fill="none" xmlns="http://www.w3.org/2000/svg">
<g filter="url(#filter0_d_616_162)">
<path d="M10.7473 23.2906C10.7464 26.2313 11.5208 29.1026 12.9933 31.6335L10.6064 40.2807L19.5249 37.9603C21.9916 39.2928 24.7554 39.9909 27.5639 39.9912H27.5713C36.8429 39.9912 44.3902 32.5051 44.3942 23.3038C44.3959 18.845 42.6476 14.6524 39.4711 11.498C36.2951 8.34397 32.0712 6.60604 27.5706 6.604C18.298 6.604 10.7512 14.0897 10.7474 23.2906" fill="url(#paint0_linear_616_162)"/>
</g>
<path d="M10.1463 23.2851C10.1453 26.3316 10.9475 29.3057 12.4724 31.9271L10 40.8843L19.2382 38.4808C21.7837 39.8579 24.6496 40.5839 27.5658 40.585H27.5733C37.1775 40.585 44.9959 32.8297 45 23.299C45.0016 18.68 43.1904 14.3366 39.9004 11.0693C36.61 7.80236 32.235 6.0019 27.5733 6C17.9674 6 10.1501 13.7543 10.1463 23.2851ZM15.648 31.4757L15.303 30.9323C13.853 28.6446 13.0877 26.0009 13.0887 23.2862C13.0918 15.3644 19.5892 8.91938 27.5788 8.91938C31.4479 8.92101 35.0841 10.4176 37.819 13.1329C40.5538 15.8486 42.0586 19.4584 42.0577 23.2979C42.0541 31.2197 35.5566 37.6655 27.5733 37.6655H27.5675C24.9681 37.6641 22.4187 36.9715 20.1954 35.6625L19.6663 35.3512L14.1841 36.7773L15.648 31.4757Z" fill="url(#paint1_linear_616_162)"/>
<path d="M23.2182 16.0588C22.892 15.3394 22.5487 15.3249 22.2384 15.3123C21.9844 15.3014 21.694 15.3023 21.4039 15.3023C21.1135 15.3023 20.6417 15.4107 20.2429 15.8427C19.8437 16.2752 18.7188 17.3203 18.7188 19.446C18.7188 21.5716 20.2791 23.626 20.4966 23.9146C20.7144 24.2026 23.509 28.7043 27.9348 30.4361C31.6131 31.8753 32.3616 31.5891 33.1599 31.5169C33.9584 31.445 35.7363 30.472 36.099 29.4632C36.462 28.4544 36.462 27.5897 36.3531 27.409C36.2443 27.229 35.9539 27.1209 35.5185 26.9049C35.083 26.6889 32.9421 25.6435 32.5431 25.4993C32.1438 25.3553 31.8536 25.2834 31.5632 25.716C31.2728 26.1479 30.439 27.1209 30.1848 27.409C29.9309 27.6978 29.6768 27.7338 29.2414 27.5177C28.8057 27.3009 27.4034 26.8452 25.7397 25.3734C24.4452 24.2282 23.5713 22.814 23.3173 22.3813C23.0633 21.9494 23.2901 21.7153 23.5084 21.5C23.7041 21.3064 23.944 20.9955 24.1619 20.7433C24.379 20.4909 24.4515 20.3109 24.5967 20.0228C24.742 19.7344 24.6693 19.482 24.5606 19.2659C24.4515 19.0498 23.6054 16.9131 23.2182 16.0588Z" fill="white"/>
<defs>
<filter id="filter0_d_616_162" x="0.606445" y="0.604004" width="53.7881" height="53.6768" filterUnits="userSpaceOnUse" color-interpolation-filters="sRGB">
<feFlood flood-opacity="0" result="BackgroundImageFix"/>
<feColorMatrix in="SourceAlpha" type="matrix" values="0 0 0 0 0 0 0 0 0 0 0 0 0 0 0 0 0 0 127 0" result="hardAlpha"/>
<feOffset dy="4"/>
<feGaussianBlur stdDeviation="5"/>
<feComposite in2="hardAlpha" operator="out"/>
<feColorMatrix type="matrix" values="0 0 0 0 0 0 0 0 0 0 0 0 0 0 0 0 0 0 0.1 0"/>
<feBlend mode="normal" in2="BackgroundImageFix" result="effect1_dropShadow_616_162"/>
<feBlend mode="normal" in="SourceGraphic" in2="effect1_dropShadow_616_162" result="shape"/>
</filter>
<linearGradient id="paint0_linear_616_162" x1="1699.99" y1="3374.27" x2="1699.99" y2="6.604" gradientUnits="userSpaceOnUse">
<stop stop-color="#1FAF38"/>
<stop offset="1" stop-color="#60D669"/>
</linearGradient>
<linearGradient id="paint1_linear_616_162" x1="1760" y1="3494.43" x2="1760" y2="6" gradientUnits="userSpaceOnUse">
<stop stop-color="#F9F9F9"/>
<stop offset="1" stop-color="white"/>
</linearGradient>
</defs>
</svg>
