<svg width="45" height="37" viewBox="0 0 45 37" fill="none" xmlns="http://www.w3.org/2000/svg">
<g clip-path="url(#clip0_336_28419)">
<path d="M39.3633 0C42.4761 6.5768e-06 45 2.50115 45 5.58594V27.625C44.9998 30.7097 42.476 33.2109 39.3633 33.2109H23.0635V35.8838H28.8125C29.1233 35.884 29.3748 36.1334 29.375 36.4414C29.375 36.7496 29.1234 36.9998 28.8125 37H16.1875C15.8765 36.9999 15.624 36.7496 15.624 36.4414C15.6242 36.1334 15.8766 35.8839 16.1875 35.8838H21.9365V33.2109H5.63574C2.52327 33.2107 0.000178893 30.7095 0 27.625V5.58594C4.0812e-05 2.50132 2.52318 0.000280742 5.63574 0H39.3633ZM5.63574 1.11621C3.14539 1.11649 1.12699 3.11793 1.12695 5.58594V7.44238H27.502L27.5596 7.44531C27.8435 7.47392 28.0653 7.71114 28.0654 8C28.0654 8.28902 27.8436 8.52705 27.5596 8.55566L27.502 8.55859H1.12695V27.625C1.12713 30.0929 3.14548 32.0935 5.63574 32.0938H39.3633C41.8538 32.0937 43.8729 30.0931 43.873 27.625V8.55859H42.6758C42.3648 8.5585 42.1123 8.30825 42.1123 8C42.1125 7.69192 42.3649 7.44248 42.6758 7.44238H43.873V5.58594C43.873 3.11776 41.8539 1.11622 39.3633 1.11621H5.63574ZM22.5068 19.4141C24.9159 19.4141 27.901 20.1034 29.3105 22.6357L29.377 22.7588C29.7804 23.5299 29.9508 24.3553 29.999 25.1709L30.0068 25.3154C30.0361 26.0317 29.9576 26.6749 29.7061 27.2295C29.4303 27.8372 28.969 28.2887 28.333 28.6113C27.7121 28.9262 26.9249 29.1183 25.9766 29.2354C25.0241 29.3529 23.8726 29.3984 22.5029 29.3984C21.1332 29.3984 19.9817 29.3529 19.0293 29.2354C18.0812 29.1183 17.2947 28.9261 16.6738 28.6113C16.0378 28.2888 15.5765 27.8372 15.3008 27.2295C15.0323 26.6378 14.9616 25.9454 15.0078 25.1709C15.0561 24.3516 15.2263 23.5289 15.6299 22.7578C17.0105 20.1256 20.0493 19.4141 22.5 19.4141H22.5068ZM22.5 20.5303C20.1678 20.5303 17.7087 21.2161 16.6299 23.2725C16.319 23.8665 16.1737 24.5247 16.1318 25.2363L16.1221 25.4834C16.1109 26.0387 16.184 26.4537 16.3281 26.7715C16.4856 27.1186 16.748 27.3947 17.1865 27.6172C17.6403 27.8473 18.2799 28.0182 19.1689 28.1279C20.0537 28.2371 21.1516 28.2822 22.5029 28.2822C23.8544 28.2822 24.953 28.2371 25.8379 28.1279C26.7266 28.0182 27.3657 27.8472 27.8193 27.6172C28.258 27.3947 28.5212 27.1186 28.6787 26.7715C28.8434 26.4083 28.9147 25.9177 28.874 25.2363L28.8535 24.9727C28.7934 24.3632 28.6489 23.792 28.377 23.2725C27.2982 21.2164 24.8359 20.5304 22.5068 20.5303H22.5ZM22.3066 11.2607C24.3906 11.1551 26.1152 12.7992 26.1152 14.8398C26.1151 15.7126 25.7977 16.5142 25.2725 17.1367L25.2715 17.1377C24.6092 17.9185 23.6136 18.4189 22.5 18.4189C21.3879 18.4189 20.3919 17.9231 19.7285 17.1377C19.1298 16.4309 18.8022 15.4869 18.9033 14.4727C18.9035 14.4702 18.904 14.4673 18.9043 14.4648C19.0804 12.7239 20.5476 11.3525 22.3066 11.2617V11.2607ZM22.3652 12.376C21.1574 12.4384 20.1465 13.3879 20.0254 14.5742C20.0253 14.5758 20.0255 14.5775 20.0254 14.5791C19.9586 15.2414 20.1533 15.8535 20.5166 16.3271L20.5918 16.4199V16.4209C21.0486 16.962 21.7327 17.3027 22.5 17.3027C23.2662 17.3027 23.9513 16.9597 24.4092 16.4199C24.7715 15.9901 24.9882 15.4398 24.9883 14.8398C24.9882 13.4357 23.8023 12.3034 22.3652 12.376ZM35.0312 2.91895C35.2077 2.91899 35.374 3.00112 35.4805 3.14062C35.482 3.14254 35.4851 3.14621 35.4893 3.15137C35.4984 3.16254 35.5139 3.18082 35.5352 3.20508C35.578 3.25398 35.6444 3.32732 35.7344 3.41406C35.9151 3.58835 36.1857 3.8152 36.5371 4.02344C37.2339 4.43627 38.2487 4.77383 39.5576 4.4707L39.6172 4.46094C39.7566 4.44401 39.8983 4.47868 40.0137 4.56055C40.1456 4.65431 40.2304 4.80078 40.2461 4.96094C40.2961 5.46992 40.3232 5.99841 40.3232 6.5332C40.3232 7.89453 40.31 8.96889 40.2158 9.83887C40.121 10.7148 39.9403 11.427 39.5771 12.0498C39.2124 12.6754 38.6909 13.1636 37.9961 13.6387C37.3094 14.1082 36.4197 14.5865 35.2969 15.1738C35.2159 15.2161 35.1257 15.2383 35.0342 15.2383H35.0273C34.9359 15.2382 34.8455 15.2162 34.7646 15.1738C33.6427 14.5866 32.7538 14.1081 32.0674 13.6387C31.3728 13.1637 30.8513 12.6753 30.4863 12.0498C30.1231 11.4271 29.9418 10.7148 29.8467 9.83887C29.7523 8.96887 29.7393 7.89445 29.7393 6.5332C29.7393 5.99811 29.7664 5.47281 29.8164 4.96094C29.832 4.80092 29.9162 4.65537 30.0479 4.56152C30.1798 4.4677 30.3467 4.4341 30.5049 4.4707C31.8137 4.7738 32.8286 4.43626 33.5254 4.02344C33.8765 3.81535 34.1465 3.58828 34.3271 3.41406C34.4171 3.32731 34.4845 3.25399 34.5273 3.20508C34.5486 3.18081 34.5642 3.1625 34.5732 3.15137L34.582 3.14062C34.6885 3.00105 34.8547 2.91895 35.0312 2.91895ZM35.0312 4.29102C34.8061 4.49904 34.4955 4.75017 34.1035 4.98242C33.3322 5.4394 32.2436 5.82339 30.8916 5.66895C30.8752 5.95343 30.8662 6.24184 30.8662 6.5332C30.8662 7.90373 30.8799 8.91885 30.9668 9.71973C31.0531 10.5146 31.2077 11.0554 31.4619 11.4912C31.7146 11.9242 32.093 12.3007 32.707 12.7207C33.2806 13.1129 34.0306 13.5226 35.0312 14.0488C36.0328 13.5225 36.7827 13.112 37.3564 12.7197C37.9706 12.2998 38.3491 11.9241 38.6016 11.4912C38.8556 11.0554 39.0097 10.5147 39.0957 9.71973C39.1824 8.91879 39.1963 7.90379 39.1963 6.5332C39.1963 6.24221 39.1872 5.95316 39.1709 5.66895C37.819 5.82337 36.7303 5.43937 35.959 4.98242C35.567 4.7502 35.2564 4.49903 35.0312 4.29102ZM37.5205 7.37012C37.7504 7.16308 38.1061 7.17976 38.3154 7.40723C38.5249 7.63517 38.5083 7.98869 38.2783 8.19629L35.791 10.4414L35.79 10.4424C35.0901 11.0721 34.0233 11.0872 33.3076 10.4648L32.2109 9.51074L32.1689 9.4707C31.9747 9.26372 31.9663 8.94086 32.1582 8.72363C32.3633 8.4919 32.7192 8.4687 32.9531 8.67188L34.0508 9.625L34.1631 9.70605C34.4364 9.86588 34.7885 9.83445 35.0322 9.61523L37.5205 7.37012ZM6.00293 4.19434C6.31401 4.19434 6.56637 4.44466 6.56641 4.75293C6.56641 5.06124 6.31403 5.31152 6.00293 5.31152C5.69196 5.31137 5.43945 5.06114 5.43945 4.75293C5.43949 4.44475 5.69198 4.19449 6.00293 4.19434ZM8.65918 4.19434C8.97008 4.19454 9.22164 4.44478 9.22168 4.75293C9.22168 5.06111 8.97011 5.31132 8.65918 5.31152C8.34807 5.31152 8.0957 5.06124 8.0957 4.75293C8.09574 4.44466 8.3481 4.19434 8.65918 4.19434ZM11.3145 4.19434C11.6255 4.19438 11.8779 4.44468 11.8779 4.75293C11.8779 5.06121 11.6255 5.31148 11.3145 5.31152C11.0033 5.31152 10.751 5.06124 10.751 4.75293C10.751 4.44466 11.0034 4.19434 11.3145 4.19434Z" fill="white"/>
</g>
<defs>
<clipPath id="clip0_336_28419">
<rect width="45" height="37" fill="white"/>
</clipPath>
</defs>
</svg>
